# xmcd
#
# Track frame offsets:
#   180
#   20339
#   43154
#   69857
#   87946
#   108329
#   126975
#   154240
#   174545
#   195584
#   214430
#   242702
#
# Disc length: 3543 seconds
#
# Revision: 0
# Processed by: cddbd v1.5.1PL0 Copyright (c) Steve Scherf et al.
# Submitted via: uFREEDB 1.6.0
#
DISCID=a50dd50c
DTITLE=Blue Stew - Destination The Blues
DYEAR=1998
DGENRE=Blues
TTITLE0=To Satisfy You
TTITLE1=Big Dance Woman
TTITLE2=Human Race
TTITLE3=Love Potion Number Nine
TTITLE4=Rio Grande
TTITLE5=Keep Moving Along
TTITLE6=She Doesn't Come Around Anymore
TTITLE7=Don't You Want A Man Like Me
TTITLE8=If It Don't Kill You, It Will Make You Strong
TTITLE9=She's Fine
TTITLE10=My Destination Is The Blues
TTITLE11=It Cuts To The Bone
EXTD=
EXTT0=
EXTT1=
EXTT2=
EXTT3=
EXTT4=
EXTT5=
EXTT6=
EXTT7=
EXTT8=
EXTT9=
EXTT10=
EXTT11=
PLAYORDER=
